<?xml version="1.0" encoding="utf-8"?>
<!-- Generator: Adobe Illustrator 22.0.1, SVG Export Plug-In . SVG Version: 6.00 Build 0)  -->
<svg version="1.1" id="Layer_1" xmlns="http://www.w3.org/2000/svg" xmlns:xlink="http://www.w3.org/1999/xlink" x="0px" y="0px"
	 viewBox="0 0 303.4 231.4" style="enable-background:new 0 0 303.4 231.4;" xml:space="preserve">
<style type="text/css">
	.st0{fill:#E53E30;}
	.st1{fill:none;stroke:#E53E30;stroke-width:0.7373;}
	.st2{fill:none;stroke:#FFFFFF;stroke-width:2.9492;}
	.st3{fill:#FFFFFF;}
	.st4{font-family:'Akrobat-Black';}
	.st5{font-size:26.4812px;}
</style>
<path class="st0" d="M161.3,189h-1c3.1,3.6,5,8.3,5,13.4c0,5.7-2.3,10.8-6,14.5c1.9-3.2,3-6.9,3-10.9c0-0.2,0-0.4,0-0.6
	c0-0.4,0.1-0.7,0.1-1.1c0-2-0.3-3.9-0.9-5.8c-0.4-3.5-1.6-6.8-3.5-9.5h-0.9c1.3,1.9,2.4,4,3,6.3c-1.3-2.5-3.2-4.6-5.4-6.3h-0.8h-1.3
	h-21c-4.2,3.2-7.1,8.1-7.6,13.7c0-0.1,0-0.2,0-0.3c0-4.8,1.7-9.3,4.5-12.8c0.3-0.2,0.5-0.4,0.8-0.6h-1.3c0,0,0,0,0,0
	c-4.4,3.4-7.5,8.5-8.2,14.3c-0.1-0.8-0.2-1.6-0.2-2.4c0-4.4,1.4-8.5,3.8-11.9h-0.9c-2.3,3.4-3.6,7.5-3.6,11.9c0,1.9,0.3,3.7,0.7,5.4
	c0.2,11.7,9.7,21.1,21.4,21.1c6.7,0,12.7-3.1,16.7-8c5.1-3.9,8.4-10,8.4-17C166.1,197.4,164.3,192.7,161.3,189z M120.4,206
	c0-5.7,2.3-10.8,6-14.5c-1.9,3.2-3,6.9-3,10.9c0,3.4,0.8,6.5,2.2,9.4c1.3,3.1,3.5,5.8,6.1,7.8c-5.5-2.6-9.7-7.5-11.3-13.4
	C120.4,206.2,120.4,206.1,120.4,206z M141,226.7c-10.2,0-18.8-7.5-20.3-17.3c2.6,5.9,7.7,10.5,14.1,12.2c1.6,0.8,3.3,1.3,5,1.7
	c1.6,0.4,3.2,0.6,4.9,0.6c3.7,0,7.2-1,10.3-2.7C151.3,224.6,146.4,226.7,141,226.7z M157.1,218.9c-2.3,1.7-5,3-7.8,3.7
	c5-1.7,9.1-5.4,11.3-10.1C159.8,214.8,158.7,217,157.1,218.9z"/>
<path class="st0" d="M101.6,187.6h-1c3.1,3.6,5,8.3,5,13.4c0,5.7-2.3,10.8-6,14.5c1.9-3.2,3-6.9,3-10.9c0-0.2,0-0.4,0-0.6
	c0-0.4,0.1-0.7,0.1-1.1c0-2-0.3-3.9-0.9-5.8c-0.4-3.5-1.6-6.8-3.5-9.5h-0.9c1.3,1.9,2.4,4,3,6.3c-1.3-2.5-3.2-4.6-5.4-6.3h-0.8h-1.3
	h-21c-4.2,3.2-7.1,8.1-7.6,13.7c0-0.1,0-0.2,0-0.3c0-4.8,1.7-9.3,4.5-12.8c0.3-0.2,0.5-0.4,0.8-0.6h-1.3c0,0,0,0,0,0
	c-4.4,3.4-7.5,8.5-8.2,14.3c-0.1-0.8-0.2-1.6-0.2-2.4c0-4.4,1.4-8.5,3.8-11.9h-0.9c-2.3,3.4-3.6,7.5-3.6,11.9c0,1.9,0.3,3.7,0.7,5.4
	c0.2,11.7,9.7,21.1,21.4,21.1c6.7,0,12.7-3.1,16.7-8c5.1-3.9,8.4-10,8.4-17C106.4,196,104.6,191.3,101.6,187.6z M60.7,204.7
	c0-5.7,2.3-10.8,6-14.5c-1.9,3.2-3,6.9-3,10.9c0,3.4,0.8,6.5,2.2,9.4c1.3,3.1,3.5,5.8,6.1,7.8c-5.5-2.6-9.7-7.5-11.3-13.4
	C60.7,204.8,60.7,204.7,60.7,204.7z M81.3,225.3c-10.2,0-18.8-7.5-20.3-17.3c2.6,5.9,7.7,10.5,14.1,12.2c1.6,0.8,3.3,1.3,5,1.7
	c1.6,0.4,3.2,0.6,4.9,0.6c3.7,0,7.2-1,10.3-2.7C91.6,223.2,86.7,225.3,81.3,225.3z M97.4,217.5c-2.3,1.7-5,3-7.8,3.7
	c5-1.7,9.1-5.4,11.3-10.1C100.1,213.4,98.9,215.6,97.4,217.5z"/>
<path class="st1" d="M96.6,134.6c11.6,0,21-9.4,21-21s-9.4-21-21-21s-21,9.4-21,21S85,134.6,96.6,134.6L96.6,134.6z M101,136.1
	c11.6,0,21-9.4,21-21s-9.4-21-21-21s-21,9.4-21,21S89.4,136.1,101,136.1L101,136.1z M97.3,139.6c11.6,0,21-9.4,21-21
	c0-11.6-9.4-21-21-21s-21,9.4-21,21C76.3,130.4,85.7,139.6,97.3,139.6L97.3,139.6z"/>
<path class="st0" d="M99.5,136.1c10.6,0,19.2-8.6,19.2-19.2s-8.6-19.2-19.2-19.2s-19.2,8.6-19.2,19.2S88.9,136.1,99.5,136.1
	L99.5,136.1z"/>
<path class="st2" d="M89.4,89.3v31.2h13.5 M99.2,105.1c0,0,11.3-1.6,11.3,12.9s-11.8,11.8-11.8,11.8v-6.6 M98.6,103.7l0.1,14.6"/>
<polygon class="st3" points="65.5,77.1 65.5,101.6 170.6,101.6 170.6,77.1 "/>
<text transform="matrix(1 0 0 1 78.749 52.4666)" class="st4 st5">L</text>
<text transform="matrix(1 0 0 1 87.499 57.9666)" class="st4 st5">D</text>
<g>
	<g>
		<path class="st3" d="M87,216.7h-7.3v-21.2H87c6.7,0,11.3,4.6,11.3,10.6C98.3,212.1,93.7,216.7,87,216.7z M87,197.8h-5v16.8h5
			c5.4,0,8.8-3.6,8.8-8.3C95.8,201.4,92.4,197.8,87,197.8z"/>
		<path class="st0" d="M87,195.5c6.7,0,11.3,4.6,11.3,10.6c0,6-4.6,10.6-11.3,10.6h-7.3v-21.2H87 M82.1,214.5h5
			c5.4,0,8.8-3.6,8.8-8.3c0-4.7-3.4-8.4-8.8-8.4h-5V214.5 M87,194.5h-7.3h-1v1v21.2v1h1H87c7.1,0,12.3-4.9,12.3-11.6
			C99.3,199.4,94.1,194.5,87,194.5L87,194.5z M83.1,198.8h4c4.6,0,7.8,3,7.8,7.4c0,4.3-3.2,7.3-7.8,7.3h-4V198.8L83.1,198.8z"/>
	</g>
</g>
<polygon class="st3" points="86.3,205.4 74.4,205.4 74.4,187.6 72,187.6 72,207.6 86.3,207.6 "/>
<g>
	<g>
		<path class="st3" d="M141.5,218.9v-23.3h6.6c4.8,0,7.6,2.9,7.6,7.9v7.3c0,5-2.8,8-7.6,8H141.5z M148.2,213.6c0.5,0,2,0,2-2.7v-7.3
			c0-2.6-1.5-2.6-2-2.6H147v12.7H148.2z"/>
		<path class="st0" d="M148.1,196.1c4.5,0,7.1,2.7,7.1,7.4v7.3c0,4.7-2.6,7.5-7.1,7.5H142v-22.3H148.1 M146.5,214.1h1.7
			c1.6,0,2.5-1.1,2.5-3.2v-7.3c0-2-0.9-3.1-2.5-3.1h-1.7V214.1 M148.1,195.1H142h-1v1v22.3v1h1h6.2c5,0,8.1-3.3,8.1-8.5v-7.3
			C156.2,198.4,153.1,195.1,148.1,195.1L148.1,195.1z M147.5,201.4h0.7c0.5,0,1.5,0,1.5,2.1v7.3c0,2.2-1,2.2-1.5,2.2h-0.7V201.4
			L147.5,201.4z"/>
	</g>
</g>
<g>
	<g>
		<polygon class="st3" points="131.7,213.9 131.7,190.7 137.2,190.7 137.2,208.6 143.8,208.6 143.8,213.9 		"/>
		<path class="st0" d="M136.7,191.2v18h6.6v4.3h-11.1v-22.3H136.7 M137.7,190.2h-1h-4.5h-1v1v22.3v1h1h11.1h1v-1v-4.3v-1h-1h-5.6
			v-17V190.2L137.7,190.2z"/>
	</g>
</g>
</svg>
