<?xml version="1.0" encoding="utf-8"?>
<!-- Generator: Adobe Illustrator 22.0.1, SVG Export Plug-In . SVG Version: 6.00 Build 0)  -->
<svg version="1.1" id="Layer_1" xmlns="http://www.w3.org/2000/svg" xmlns:xlink="http://www.w3.org/1999/xlink" x="0px" y="0px"
	 viewBox="0 0 51.7 40.9" style="enable-background:new 0 0 51.7 40.9;" xml:space="preserve">
<style type="text/css">
	.st0{fill:#E53E30;}
	.st1{fill:#FFFFFF;}
</style>
<path class="st0" d="M44.3,0h-1c3.1,3.6,5,8.3,5,13.4c0,5.7-2.3,10.8-6,14.5c1.9-3.2,3-6.9,3-10.9c0-0.2,0-0.4,0-0.6
	c0-0.4,0.1-0.7,0.1-1.1c0-2-0.3-3.9-0.9-5.8C44.1,6,42.9,2.7,41,0h-0.9c1.3,1.9,2.4,4,3,6.3c-1.3-2.5-3.2-4.6-5.4-6.3h-0.8h-1.3h-21
	C10.4,3.2,7.5,8.1,7,13.7c0-0.1,0-0.2,0-0.3c0-4.8,1.7-9.3,4.5-12.8C11.8,0.4,12,0.2,12.3,0H11l0,0C6.6,3.4,3.5,8.5,2.8,14.3
	c-0.1-0.8-0.2-1.6-0.2-2.4C2.6,7.5,4,3.4,6.4,0H5.5C3.2,3.4,1.9,7.5,1.9,11.9c0,1.9,0.3,3.7,0.7,5.4C2.8,29,12.3,38.4,24,38.4
	c6.7,0,12.7-3.1,16.7-8c5.1-3.9,8.4-10,8.4-17C49.1,8.4,47.3,3.7,44.3,0z M3.4,17c0-5.7,2.3-10.8,6-14.5c-1.9,3.2-3,6.9-3,10.9
	c0,3.4,0.8,6.5,2.2,9.4c1.3,3.1,3.5,5.8,6.1,7.8C9.2,28,5,23.1,3.4,17.2C3.4,17.2,3.4,17.1,3.4,17z M24,37.7
	c-10.2,0-18.8-7.5-20.3-17.3c2.6,5.9,7.7,10.5,14.1,12.2c1.6,0.8,3.3,1.3,5,1.7c1.6,0.4,3.2,0.6,4.9,0.6c3.7,0,7.2-1,10.3-2.7
	C34.3,35.6,29.4,37.7,24,37.7z M40.1,29.9c-2.3,1.7-5,3-7.8,3.7c5-1.7,9.1-5.4,11.3-10.1C42.8,25.8,41.7,28,40.1,29.9z"/>
<g>
	<g>
		<path class="st1" d="M24.5,29.9V6.6h6.6c4.8,0,7.6,2.9,7.6,7.9v7.3c0,5-2.8,8-7.6,8h-6.6V29.9z M31.2,24.6c0.5,0,2,0,2-2.7v-7.3
			c0-2.6-1.5-2.6-2-2.6H30v12.7L31.2,24.6L31.2,24.6z"/>
		<path class="st0" d="M31.1,7.1c4.5,0,7.1,2.7,7.1,7.4v7.3c0,4.7-2.6,7.5-7.1,7.5H25V7h6.1 M29.5,25.1h1.7c1.6,0,2.5-1.1,2.5-3.2
			v-7.3c0-2-0.9-3.1-2.5-3.1h-1.7V25.1 M31.1,6.1H25h-1v1v22.3v1h1h6.2c5,0,8.1-3.3,8.1-8.5v-7.3C39.2,9.4,36.1,6.1,31.1,6.1
			L31.1,6.1z M30.5,12.4h0.7c0.5,0,1.5,0,1.5,2.1v7.3c0,2.2-1,2.2-1.5,2.2h-0.7V12.4L30.5,12.4z"/>
	</g>
</g>
<g>
	<g>
		<polygon class="st1" points="14.7,24.9 14.7,1.7 20.2,1.7 20.2,19.6 26.8,19.6 26.8,24.9 		"/>
		<path class="st0" d="M19.7,2.2v18h6.6v4.3H15.2V2.2H19.7 M20.7,1.2h-1h-4.5h-1v1v22.3v1h1h11.1h1v-1v-4.3v-1h-1h-5.6v-17V1.2
			L20.7,1.2z"/>
	</g>
</g>
</svg>
