<?xml version="1.0" encoding="utf-8"?>
<!-- Generator: Adobe Illustrator 22.0.1, SVG Export Plug-In . SVG Version: 6.00 Build 0)  -->
<svg version="1.1" id="Layer_1" xmlns="http://www.w3.org/2000/svg" xmlns:xlink="http://www.w3.org/1999/xlink" x="0px" y="0px"
	 viewBox="0 0 51.7 40.9" style="enable-background:new 0 0 51.7 40.9;" xml:space="preserve">
<style type="text/css">
	.st0{fill:#E53E30;}
	.st1{fill:#FFFFFF;}
</style>
<path class="st0" d="M44.3,0.1h-1c3.1,3.6,5,8.3,5,13.4c0,5.7-2.3,10.8-6,14.5c1.9-3.2,3-6.9,3-10.9c0-0.2,0-0.4,0-0.6
	c0-0.4,0.1-0.7,0.1-1.1c0-2-0.3-3.9-0.9-5.8c-0.4-3.5-1.6-6.8-3.5-9.5h-0.9c1.3,1.9,2.4,4,3,6.3c-1.3-2.5-3.2-4.6-5.4-6.3h-0.8h-1.3
	h-21C10.4,3.3,7.5,8.2,7,13.8c0-0.1,0-0.2,0-0.3c0-4.8,1.7-9.3,4.5-12.8c0.3-0.2,0.5-0.4,0.8-0.6H11l0,0C6.6,3.5,3.5,8.6,2.8,14.4
	c-0.1-0.8-0.2-1.6-0.2-2.4C2.6,7.6,4,3.5,6.4,0.1H5.5C3.2,3.5,1.9,7.6,1.9,12c0,1.9,0.3,3.7,0.7,5.4C2.8,29.1,12.3,38.5,24,38.5
	c6.7,0,12.7-3.1,16.7-8c5.1-3.9,8.4-10,8.4-17C49.2,8.5,47.3,3.8,44.3,0.1z M3.5,17.2c0-5.7,2.3-10.8,6-14.5c-1.9,3.2-3,6.9-3,10.9
	c0,3.4,0.8,6.5,2.2,9.4c1.3,3.1,3.5,5.8,6.1,7.8C9.2,28.2,5,23.3,3.4,17.4C3.5,17.3,3.5,17.2,3.5,17.2z M24.1,37.8
	c-10.2,0-18.8-7.5-20.3-17.3c2.6,5.9,7.7,10.5,14.1,12.2c1.6,0.8,3.3,1.3,5,1.7c1.6,0.4,3.2,0.6,4.9,0.6c3.7,0,7.2-1,10.3-2.7
	C34.3,35.7,29.4,37.8,24.1,37.8z M40.2,30c-2.3,1.7-5,3-7.8,3.7c5-1.7,9.1-5.4,11.3-10.1C42.8,25.9,41.7,28.1,40.2,30z"/>
<g>
	<g>
		<path class="st1" d="M29.8,29.2h-7.3V8h7.3c6.7,0,11.3,4.6,11.3,10.6S36.4,29.2,29.8,29.2z M29.8,10.3h-5v16.8h5
			c5.4,0,8.8-3.6,8.8-8.3C38.6,13.9,35.2,10.3,29.8,10.3z"/>
		<path class="st0" d="M29.8,8c6.7,0,11.3,4.6,11.3,10.6s-4.6,10.6-11.3,10.6h-7.3V8L29.8,8 M24.8,27h5c5.4,0,8.8-3.6,8.8-8.3
			s-3.4-8.4-8.8-8.4h-5V27 M29.8,7h-7.3h-1v1v21.2v1h1h7.3c7.1,0,12.3-4.9,12.3-11.6C42.1,11.9,36.8,7,29.8,7L29.8,7z M25.8,11.3h4
			c4.6,0,7.8,3,7.8,7.4c0,4.3-3.2,7.3-7.8,7.3h-4V11.3L25.8,11.3z"/>
	</g>
</g>
<polygon class="st1" points="29.1,17.9 17.2,17.9 17.2,0.1 14.8,0.1 14.8,20.1 29.1,20.1 "/>
</svg>
