<?xml version="1.0" encoding="utf-8"?>
<!-- Generator: Adobe Illustrator 16.0.0, SVG Export Plug-In . SVG Version: 6.00 Build 0)  -->
<!DOCTYPE svg PUBLIC "-//W3C//DTD SVG 1.1//EN" "http://www.w3.org/Graphics/SVG/1.1/DTD/svg11.dtd">
<svg version="1.1" id="Layer_1" xmlns="http://www.w3.org/2000/svg" xmlns:xlink="http://www.w3.org/1999/xlink" x="0px" y="0px"
	 width="270.098px" height="82.417px" viewBox="0 0 270.098 82.417" enable-background="new 0 0 270.098 82.417"
	 xml:space="preserve">
<rect x="-2.511" width="272.609" height="82.417"/>
<g>
	<path fill="#FFFFFF" d="M0,36.821l6.297-2.407l14.421,37.725l-6.297,2.407L0,36.821z"/>
	<path fill="#FFFFFF" d="M39.391,37.846c3.029,1.68,5.398,4.755,7.108,9.229c0.337,0.881,0.573,1.55,0.71,2.002l-19.133,7.314
		c1.157,1.771,2.602,2.958,4.33,3.56c1.729,0.602,3.546,0.538,5.451-0.19c1.324-0.506,2.492-1.253,3.502-2.242
		c1.01-0.988,1.779-2.146,2.308-3.476l4.81,2.416c-0.723,1.985-1.855,3.739-3.401,5.263s-3.449,2.718-5.709,3.581
		c-2.648,1.013-5.202,1.327-7.66,0.947c-2.459-0.381-4.637-1.404-6.53-3.068c-1.895-1.665-3.36-3.853-4.397-6.564
		c-1.036-2.712-1.399-5.332-1.089-7.859s1.243-4.758,2.799-6.692c1.555-1.936,3.607-3.39,6.159-4.365
		C32.78,36.12,36.362,36.169,39.391,37.846z M39.802,46.838c-0.829-1.976-2.067-3.327-3.716-4.058
		c-1.648-0.729-3.458-0.717-5.427,0.035c-1.841,0.704-3.16,1.877-3.956,3.522c-0.796,1.645-0.95,3.54-0.463,5.685L39.802,46.838z"/>
	<path fill="#FFFFFF" d="M59.688,32.417c-1.509,0.073-2.828,0.324-3.958,0.757c-1.065,0.407-1.839,0.927-2.32,1.557
		c-0.48,0.631-0.564,1.353-0.254,2.166c0.324,0.848,0.969,1.349,1.935,1.503c0.966,0.156,2.401,0.16,4.308,0.015
		c2.029-0.114,3.731-0.114,5.108-0.001c1.376,0.115,2.702,0.561,3.979,1.334c1.276,0.775,2.259,2.061,2.945,3.856
		c1.011,2.645,0.819,5.048-0.574,7.212s-3.56,3.809-6.498,4.933c-2.002,0.765-4.082,1.181-6.24,1.248
		c-2.157,0.067-4.132-0.256-5.922-0.971l0.411-5.459c1.564,0.607,3.267,0.897,5.108,0.874c1.841-0.024,3.488-0.314,4.941-0.87
		c1.162-0.444,2.01-1.011,2.542-1.7c0.532-0.688,0.637-1.457,0.313-2.305c-0.362-0.948-1.039-1.506-2.027-1.673
		c-0.988-0.165-2.497-0.19-4.525-0.076c-1.95,0.125-3.577,0.135-4.875,0.028c-1.298-0.105-2.556-0.538-3.771-1.297
		c-1.215-0.759-2.153-2.003-2.814-3.731c-1.023-2.678-0.876-5.074,0.444-7.191c1.318-2.116,3.383-3.711,6.192-4.785
		c1.711-0.654,3.495-1.045,5.353-1.173c1.857-0.127,3.606,0.02,5.249,0.442l-0.45,5.648C62.73,32.46,61.197,32.348,59.688,32.417z"
		/>
	<path fill="#FFFFFF" d="M65.195,11.898l6.297-2.407l14.422,37.725l-6.297,2.407L65.195,11.898z"/>
	<path fill="#FFFFFF" d="M104.586,12.924c3.029,1.679,5.398,4.755,7.109,9.229c0.337,0.881,0.572,1.549,0.709,2.001l-19.133,7.314
		c1.158,1.771,2.602,2.959,4.331,3.56c1.729,0.602,3.546,0.538,5.451-0.19c1.323-0.506,2.491-1.252,3.501-2.241
		c1.011-0.988,1.779-2.146,2.308-3.476l4.81,2.416c-0.722,1.984-1.855,3.738-3.4,5.262c-1.547,1.523-3.449,2.718-5.71,3.582
		c-2.648,1.012-5.202,1.327-7.659,0.947c-2.459-0.381-4.637-1.404-6.531-3.069s-3.36-3.853-4.396-6.564
		c-1.037-2.712-1.399-5.331-1.089-7.858s1.243-4.759,2.798-6.693c1.556-1.936,3.608-3.39,6.159-4.364
		C97.977,11.197,101.559,11.246,104.586,12.924z M104.998,21.915c-0.83-1.975-2.068-3.327-3.717-4.057
		c-1.647-0.729-3.457-0.718-5.427,0.035c-1.841,0.703-3.159,1.877-3.955,3.521s-0.951,3.54-0.464,5.685L104.998,21.915z"/>
	<path fill="#FFFFFF" d="M131.652,39.434c-1.067,1.71,0.042,2.879-2.025,3.669c-1.26,0.481-2.776-7.923-2.667-10.063l0.094-2.076
		l-20.928-22.65l6.539-2.499l15.923,16.963l-0.044-19.425h3l1.518,21.595C133.11,27.493,132.72,37.724,131.652,39.434z"/>
</g>
<g>
	<path fill="#FFFFFF" d="M133.063,0l0.065,71.997l-6.741,0.012l-0.008-4.681c-1,1.634-2.286,2.879-3.857,3.734
		c-1.572,0.855-3.395,1.284-5.469,1.287c-2.628,0.004-4.937-0.618-6.926-1.866c-1.99-1.248-3.54-3.006-4.65-5.272
		c-1.11-2.266-1.667-4.868-1.672-7.808c-0.004-2.902,0.536-5.472,1.622-7.705s2.621-3.968,4.607-5.205
		c1.985-1.236,4.257-1.858,6.816-1.862c2.108-0.003,3.958,0.43,5.551,1.298c1.591,0.868,2.907,2.118,3.947,3.75L126.321,0H133.063z
		 M124.169,63.929c1.467-1.652,2.198-3.786,2.194-6.398s-0.743-4.743-2.214-6.393c-1.473-1.647-3.366-2.471-5.682-2.467
		c-2.316,0.003-4.199,0.833-5.648,2.485c-1.449,1.653-2.19,3.787-2.219,6.399c0.038,2.612,0.786,4.743,2.24,6.392
		c1.455,1.649,3.34,2.471,5.656,2.468C120.811,66.411,122.703,65.583,124.169,63.929z"/>
	<path fill="#FFFFFF" d="M151.777,44.126c1.605-1,3.479-1.52,5.624-1.561l0.011,6.858c-2.87-0.176-5.159,0.526-6.868,2.107
		c-1.708,1.58-2.561,3.715-2.557,6.399l0.023,14.043l-6.741,0.011l-0.047-29.12l6.741-0.011l0.009,5.606
		C148.903,46.571,150.17,45.127,151.777,44.126z"/>
	<path fill="#FFFFFF" d="M183.154,46.553c2.233,2.646,3.354,6.362,3.362,11.152c0.002,0.943-0.016,1.651-0.048,2.123l-20.483,0.033
		c0.452,2.066,1.38,3.69,2.782,4.866c1.401,1.178,3.122,1.764,5.163,1.761c1.416-0.002,2.773-0.285,4.068-0.851
		c1.296-0.563,2.427-1.373,3.393-2.427l3.637,3.968c-1.381,1.599-3.063,2.835-5.051,3.709c-1.986,0.874-4.189,1.313-6.608,1.317
		c-2.835,0.005-5.334-0.608-7.496-1.839c-2.163-1.229-3.835-2.96-5.013-5.19c-1.18-2.229-1.771-4.796-1.775-7.699
		c-0.006-2.902,0.588-5.479,1.775-7.731c1.189-2.252,2.854-4.005,4.996-5.261c2.142-1.255,4.578-1.885,7.309-1.89
		C177.59,42.588,180.919,43.907,183.154,46.553z M180.341,55.102c-0.073-2.141-0.749-3.845-2.03-5.112s-2.977-1.901-5.086-1.897
		c-1.97,0.003-3.62,0.632-4.949,1.886c-1.328,1.254-2.146,2.971-2.454,5.147L180.341,55.102z"/>
	<path fill="#FFFFFF" d="M194.387,82.417l3.352-11.015l-11.506-28.611l7.001-0.011l7.916,21.16l7.174-21.185l6.794-0.011
		l-14.442,39.672h-3.548H194.387z"/>
	<path fill="#FFFFFF" d="M239.054,46.462c2.233,2.646,3.354,6.363,3.362,11.153c0.002,0.943-0.016,1.651-0.048,2.123l-20.483,0.032
		c0.452,2.067,1.38,3.69,2.782,4.867c1.401,1.178,3.122,1.764,5.163,1.76c1.416-0.002,2.773-0.284,4.068-0.85
		c1.296-0.564,2.427-1.373,3.393-2.428l3.637,3.968c-1.381,1.599-3.063,2.835-5.051,3.709c-1.986,0.875-4.189,1.313-6.608,1.317
		c-2.835,0.005-5.334-0.608-7.496-1.838c-2.163-1.23-3.835-2.961-5.013-5.19c-1.18-2.229-1.771-4.796-1.775-7.699
		c-0.006-2.902,0.588-5.479,1.775-7.731c1.189-2.252,2.854-4.006,4.996-5.261c2.142-1.256,4.578-1.886,7.309-1.89
		C233.491,42.497,236.82,43.817,239.054,46.462z M236.242,55.012c-0.073-2.141-0.749-3.845-2.03-5.113
		c-1.281-1.268-2.977-1.9-5.086-1.897c-1.97,0.004-3.62,0.632-4.949,1.887c-1.328,1.254-2.146,2.97-2.454,5.147L236.242,55.012z"/>
	<path fill="#FFFFFF" d="M258.237,43.954c1.605-1,3.479-1.52,5.623-1.561l0.012,6.858c-2.871-0.176-5.159,0.526-6.868,2.106
		c-1.708,1.581-2.561,3.716-2.557,6.4l0.022,14.043l-6.74,0.011l-0.047-29.12l6.74-0.011l0.01,5.606
		C255.362,46.399,256.63,44.955,258.237,43.954z"/>
</g>
</svg>
