<?xml version="1.0" encoding="utf-8"?>
<!-- Generator: Adobe Illustrator 16.0.0, SVG Export Plug-In . SVG Version: 6.00 Build 0)  -->
<!DOCTYPE svg PUBLIC "-//W3C//DTD SVG 1.1//EN" "http://www.w3.org/Graphics/SVG/1.1/DTD/svg11.dtd">
<svg version="1.1" id="Layer_1" xmlns="http://www.w3.org/2000/svg" xmlns:xlink="http://www.w3.org/1999/xlink" x="0px" y="0px"
	 width="64.375px" height="5.875px" viewBox="-1.125 3.125 64.375 5.875" enable-background="new -1.125 3.125 64.375 5.875"
	 xml:space="preserve">
<rect x="1.266" y="3.125" opacity="0.1" fill="#FFFFFF" width="2.305" height="5.875"/>
<rect x="10.737" y="3.125" opacity="0.1" fill="#FFFFFF" width="3.874" height="5.875"/>
<rect x="-0.206" y="3.125" opacity="0.1" fill="#FFFFFF" width="1.19" height="5.875"/>
<rect x="4.574" y="3.125" opacity="0.1" fill="#FFFFFF" width="1.19" height="5.875"/>
<rect x="6.362" y="3.125" opacity="0.1" fill="#FFFFFF" width="1.188" height="5.875"/>
<rect x="8.377" y="3.125" opacity="0.1" fill="#FFFFFF" width="1.19" height="5.875"/>
<rect x="16.563" y="3.125" opacity="0.1" fill="#FFFFFF" width="2.305" height="5.875"/>
<rect x="15.092" y="3.125" opacity="0.1" fill="#FFFFFF" width="1.19" height="5.875"/>
<rect x="19.873" y="3.125" opacity="0.1" fill="#FFFFFF" width="0.661" height="5.875"/>
<rect x="22.625" y="3.125" opacity="0.1" fill="#FFFFFF" width="2.305" height="5.875"/>
<rect x="32.096" y="3.125" opacity="0.1" fill="#FFFFFF" width="3.873" height="5.875"/>
<rect x="21.152" y="3.125" opacity="0.1" fill="#FFFFFF" width="1.19" height="5.875"/>
<rect x="25.933" y="3.125" opacity="0.1" fill="#FFFFFF" width="1.189" height="5.875"/>
<rect x="27.72" y="3.125" opacity="0.1" fill="#FFFFFF" width="1.188" height="5.875"/>
<rect x="29.735" y="3.125" opacity="0.1" fill="#FFFFFF" width="1.19" height="5.875"/>
<rect x="37.921" y="3.125" opacity="0.1" fill="#FFFFFF" width="2.306" height="5.875"/>
<rect x="36.45" y="3.125" opacity="0.1" fill="#FFFFFF" width="1.19" height="5.875"/>
<rect x="41.231" y="3.125" opacity="0.1" fill="#FFFFFF" width="0.66" height="5.875"/>
<rect x="43.982" y="3.125" opacity="0.1" fill="#FFFFFF" width="2.306" height="5.875"/>
<rect x="53.453" y="3.125" opacity="0.1" fill="#FFFFFF" width="3.874" height="5.875"/>
<rect x="42.511" y="3.125" opacity="0.1" fill="#FFFFFF" width="1.19" height="5.875"/>
<rect x="47.291" y="3.125" opacity="0.1" fill="#FFFFFF" width="1.189" height="5.875"/>
<rect x="49.078" y="3.125" opacity="0.1" fill="#FFFFFF" width="1.188" height="5.875"/>
<rect x="51.094" y="3.125" opacity="0.1" fill="#FFFFFF" width="1.19" height="5.875"/>
<rect x="59.279" y="3.125" opacity="0.1" fill="#FFFFFF" width="2.305" height="5.875"/>
<rect x="57.809" y="3.125" opacity="0.1" fill="#FFFFFF" width="1.19" height="5.875"/>
<rect x="62.59" y="3.125" opacity="0.1" fill="#FFFFFF" width="0.66" height="5.875"/>
</svg>
